#tb 0: 1/1000
0,          0,          0,        0,      408, c14f2ba5b4582c9d3a488976814691b3
0,         33,         33,        0,      408, 4387a4dce19007b7efb810b5a4069749
0,         66,         66,        0,      408, ecfe868d28f4861a5612edfd57447a02
0,        100,        100,        0,      408, 5cba54f568534d29169ac31c8fa505e0
0,        133,        133,        0,      408, fe9aab7b3378b9fc3e373ee626b887db
0,        166,        166,        0,      408, fce72dfc7f9c0cb50ff73761b4d82c1f
0,        200,        200,        0,      408, d4d98f42b1377e0f0ffaa66aa81d40c3
0,        233,        233,        0,      408, 65c027646dc95a749ce2d7ad0a6beccc
0,        266,        266,        0,      408, 317b283a0d907270f671272771022e69
0,        300,        300,        0,      408, d3e2c008584608502f3e24c5c5f64028
